<?xml version="1.0" encoding="utf-8"?><svg xmlns="http://www.w3.org/2000/svg" viewBox="0 0 1284.52 427.96"><title>Asset 4</title><g id="Layer_2" data-name="Layer 2"><g id="Layer_1-2" data-name="Layer 1"><path d="M88.72,42.05a24.44,24.44,0,0,0-11.34-7.82A40.81,40.81,0,0,0,63.84,31.7a35.82,35.82,0,0,0-7.7.88,29.51,29.51,0,0,0-7.49,2.76,16.08,16.08,0,0,0-5.72,4.95,12.52,12.52,0,0,0-2.2,7.49q0,7,5.28,10.78A50.38,50.38,0,0,0,59.33,65q8,2.63,17.28,5.28a71.21,71.21,0,0,1,17.28,7.48,40.88,40.88,0,0,1,13.32,13q5.28,8.14,5.28,21.79,0,13-4.84,22.68a46,46,0,0,1-13.1,16.07,55.77,55.77,0,0,1-19.15,9.47,84.4,84.4,0,0,1-23,3.08,83.2,83.2,0,0,1-28.17-4.63A70.39,70.39,0,0,1,0,144.2l24.44-26.86a35.67,35.67,0,0,0,13.31,10.9,37.65,37.65,0,0,0,25.1,2.86,27.44,27.44,0,0,0,7.71-3,16.63,16.63,0,0,0,5.5-5.06,12.65,12.65,0,0,0,2.09-7.26,13.2,13.2,0,0,0-5.39-11.12,50,50,0,0,0-13.54-6.94Q51.08,94.89,41.61,92A78.91,78.91,0,0,1,24,84.32,42.34,42.34,0,0,1,10.46,71.55q-5.4-7.93-5.4-20.91,0-12.55,5-22a47.8,47.8,0,0,1,13.2-15.85A57.2,57.2,0,0,1,42.27,3.2,77.85,77.85,0,0,1,64.5,0,87.27,87.27,0,0,1,90,3.75,58.78,58.78,0,0,1,112.27,16.3Z"/><path d="M309.74,97.74,290.59,49.32,271.65,97.74,260.87,126.8l-13,33H210L277.38,4h28.39l67.81,155.86H334.83L309.74,97.74"/><path d="M487.17,34.35H442.7V4H566V34.35H521.52V159.82H487.17Z"/><path d="M663.06,81.89A87.91,87.91,0,0,1,669.34,48a74.11,74.11,0,0,1,17.5-25.86,76.89,76.89,0,0,1,26.64-16.4,101.85,101.85,0,0,1,67.36,0,77.07,77.07,0,0,1,26.64,16.4A74.38,74.38,0,0,1,825,48a88.1,88.1,0,0,1,6.27,33.9A88.11,88.11,0,0,1,825,115.8a74.57,74.57,0,0,1-17.5,25.86,77.07,77.07,0,0,1-26.64,16.4,101.85,101.85,0,0,1-67.36,0,76.89,76.89,0,0,1-26.64-16.4,74.3,74.3,0,0,1-17.5-25.86A87.93,87.93,0,0,1,663.06,81.89Zm35.66,0A57.08,57.08,0,0,0,702.14,102a46,46,0,0,0,9.79,15.85,44.65,44.65,0,0,0,15.3,10.45,54.95,54.95,0,0,0,39.85,0,44.65,44.65,0,0,0,15.3-10.45,46.36,46.36,0,0,0,9.8-15.85,57.3,57.3,0,0,0,3.41-20.15,57.59,57.59,0,0,0-3.41-20,46.09,46.09,0,0,0-9.8-16,45,45,0,0,0-15.3-10.46,54.95,54.95,0,0,0-39.85,0,45,45,0,0,0-15.3,10.46,45.77,45.77,0,0,0-9.79,16A57.36,57.36,0,0,0,698.72,81.89Z"/><path d="M942.64,4H1003a106.52,106.52,0,0,1,22.57,2.32,53.43,53.43,0,0,1,18.71,7.7A38.45,38.45,0,0,1,1057,28.51q4.73,9.14,4.73,22.78,0,16.51-8.58,28.07T1028.05,94l39.63,65.82h-41.17l-32.58-62.3H977v62.3H942.64ZM977,68.46h20.25c3.08,0,6.35-.1,9.8-.33a30.9,30.9,0,0,0,9.35-2,16.3,16.3,0,0,0,6.94-5.18c1.83-2.35,2.75-5.64,2.75-9.91q0-5.94-2.42-9.46a16.08,16.08,0,0,0-6.17-5.39,27.19,27.19,0,0,0-8.58-2.54,70.17,70.17,0,0,0-9.47-.66H977Z"/><path d="M1174.66,4h105.89v31.7H1209V64.72h67.58V96.43H1209v31.69h75.51v31.7H1174.66Z"/><path d="M103.14,306.22A24.44,24.44,0,0,0,91.8,298.4a40.81,40.81,0,0,0-13.54-2.53,35.27,35.27,0,0,0-7.7.88,29.8,29.8,0,0,0-7.48,2.75,16.24,16.24,0,0,0-5.73,5,12.51,12.51,0,0,0-2.2,7.48q0,7.05,5.28,10.79a50.07,50.07,0,0,0,13.32,6.38q8,2.64,17.28,5.29a71.21,71.21,0,0,1,17.28,7.48,40.88,40.88,0,0,1,13.32,13q5.28,8.14,5.28,21.79,0,13-4.84,22.67A45.92,45.92,0,0,1,109,415.41a55.75,55.75,0,0,1-19.15,9.46,84.28,84.28,0,0,1-23,3.09,83.51,83.51,0,0,1-28.18-4.63,70.6,70.6,0,0,1-24.22-15l24.44-26.85a35.62,35.62,0,0,0,13.32,10.9,38.11,38.11,0,0,0,16.62,3.84,37.62,37.62,0,0,0,8.47-1,27.13,27.13,0,0,0,7.71-3,16.63,16.63,0,0,0,5.5-5.06A12.61,12.61,0,0,0,92.57,380a13.19,13.19,0,0,0-5.39-11.11,49.71,49.71,0,0,0-13.54-6.94q-8.15-2.85-17.61-5.72a78.68,78.68,0,0,1-17.61-7.71,42.23,42.23,0,0,1-13.54-12.77q-5.4-7.92-5.4-20.91a46.84,46.84,0,0,1,5-22,47.71,47.71,0,0,1,13.21-15.85,57.36,57.36,0,0,1,19-9.58,78.2,78.2,0,0,1,22.23-3.19,87.27,87.27,0,0,1,25.54,3.75,59,59,0,0,1,22.24,12.54Z"/><path d="M270.66,298.52H226.2V268.13H349.47v30.39H305V424H270.66Z"/><path d="M586.34,363.89a75.11,75.11,0,0,1-4.18,25.54,56.07,56.07,0,0,1-12.44,20.25,56.73,56.73,0,0,1-20.58,13.43Q536.81,428,520.74,428q-16.29,0-28.62-4.85a55.16,55.16,0,0,1-33-33.68,75.11,75.11,0,0,1-4.18-25.54V268.13h34.34v94.44A37.92,37.92,0,0,0,491.57,376a32.24,32.24,0,0,0,6.5,10.68,29.33,29.33,0,0,0,10,7,31.42,31.42,0,0,0,12.66,2.53,30.66,30.66,0,0,0,12.55-2.53,29.62,29.62,0,0,0,9.91-7A32.22,32.22,0,0,0,549.69,376,37.92,37.92,0,0,0,552,362.57V268.13h34.34Z"/><path d="M706.1,268.13h51.51a147,147,0,0,1,35.56,4.19,81.3,81.3,0,0,1,29.38,13.53,66.36,66.36,0,0,1,19.93,24.33q7.37,15,7.37,36.33,0,18.93-7.15,33.35a71.76,71.76,0,0,1-19.27,24.21,85.08,85.08,0,0,1-27.95,14.86A108.46,108.46,0,0,1,762.24,424H706.1Zm34.34,124.16h17.83a95.73,95.73,0,0,0,22.13-2.42,47.13,47.13,0,0,0,17.72-8,38.48,38.48,0,0,0,11.78-14.74q4.29-9.13,4.29-22.35a43.58,43.58,0,0,0-4.29-19.92,39.87,39.87,0,0,0-11.56-14,50.54,50.54,0,0,0-17.06-8.25,75.64,75.64,0,0,0-20.58-2.76H740.44Z"/><path d="M960.8,268.13h34.34V424H960.8Z"/><path d="M1106.09,346.06a87.91,87.91,0,0,1,6.28-33.9,74.11,74.11,0,0,1,17.5-25.86,77.06,77.06,0,0,1,26.64-16.41,102,102,0,0,1,67.36,0,77.25,77.25,0,0,1,26.64,16.41,74.38,74.38,0,0,1,17.5,25.86,94.78,94.78,0,0,1,0,67.8,74.52,74.52,0,0,1-17.5,25.87,77.07,77.07,0,0,1-26.64,16.4,101.85,101.85,0,0,1-67.36,0,76.89,76.89,0,0,1-26.64-16.4,74.25,74.25,0,0,1-17.5-25.87A87.84,87.84,0,0,1,1106.09,346.06Zm35.66,0a57.12,57.12,0,0,0,3.42,20.15,46,46,0,0,0,9.79,15.85,44.65,44.65,0,0,0,15.3,10.45,54.95,54.95,0,0,0,39.85,0,44.65,44.65,0,0,0,15.3-10.45,46.18,46.18,0,0,0,9.79-15.85,60.72,60.72,0,0,0,0-40.18,45.91,45.91,0,0,0-9.79-16,45,45,0,0,0-15.3-10.46,54.95,54.95,0,0,0-39.85,0,45,45,0,0,0-15.3,10.46,45.77,45.77,0,0,0-9.79,16A57.32,57.32,0,0,0,1141.75,346.06Z"/></g></g></svg>